<svg width="12" height="14" viewBox="0 0 12 14" fill="none" xmlns="http://www.w3.org/2000/svg">
<path d="M10.9334 3.59992L7.8667 0.533252C7.60003 0.266585 7.20003 0.266585 6.93337 0.533252C6.6667 0.799919 6.6667 1.19992 6.93337 1.46659L8.8667 3.39992H3.53337C2.0667 3.39992 0.866699 4.59992 0.866699 6.06659V12.9999C0.866699 13.3999 1.13337 13.6666 1.53337 13.6666C1.93337 13.6666 2.20003 13.3999 2.20003 12.9999V6.06659C2.20003 5.33325 2.80003 4.73325 3.53337 4.73325H8.8667L6.93337 6.66659C6.80003 6.79992 6.73337 6.93325 6.73337 7.13325C6.73337 7.53325 7.00003 7.79992 7.40003 7.79992C7.60003 7.79992 7.73337 7.73325 7.8667 7.59992L10.9334 4.53325C11.2 4.26659 11.2 3.86659 10.9334 3.59992Z" fill="#0A0A0B"/>
</svg>
